<svg width="20" height="20" viewBox="0 0 20 20" fill="none" xmlns="http://www.w3.org/2000/svg">
<path d="M14.9999 8.33228L11.6666 4.99895M2.08325 17.9156L4.90356 17.6023C5.24813 17.564 5.42042 17.5448 5.58146 17.4927C5.72433 17.4464 5.86029 17.3811 5.98566 17.2984C6.12696 17.2052 6.24954 17.0827 6.49469 16.8375L17.4999 5.83228C18.4204 4.91181 18.4204 3.41942 17.4999 2.49895C16.5795 1.57848 15.0871 1.57847 14.1666 2.49895L3.16136 13.5042C2.91621 13.7493 2.79363 13.8719 2.70045 14.0132C2.61778 14.1386 2.55243 14.2745 2.50618 14.4174C2.45405 14.5784 2.43491 14.7507 2.39662 15.0953L2.08325 17.9156Z" stroke="currentColor" stroke-width="1.66667" stroke-linecap="round" stroke-linejoin="round"/>
</svg>
