<svg width="19" height="14" viewBox="0 0 19 14" fill="none" xmlns="http://www.w3.org/2000/svg">
<path d="M1.05315 7.26098C0.939657 7.08128 0.882912 6.99143 0.851147 6.85284C0.827287 6.74874 0.827287 6.58458 0.851147 6.48048C0.882912 6.3419 0.939657 6.25205 1.05315 6.07235C1.99098 4.58736 4.78254 0.833328 9.03671 0.833328C13.2909 0.833328 16.0824 4.58736 17.0203 6.07235C17.1338 6.25205 17.1905 6.3419 17.2223 6.48048C17.2461 6.58458 17.2461 6.74874 17.2223 6.85284C17.1905 6.99143 17.1338 7.08128 17.0203 7.26098C16.0824 8.74596 13.2909 12.5 9.03671 12.5C4.78254 12.5 1.99098 8.74596 1.05315 7.26098Z" stroke="currentColor" stroke-width="1.66667" stroke-linecap="round" stroke-linejoin="round"/>
<path d="M9.03671 9.16666C10.4174 9.16666 11.5367 8.04737 11.5367 6.66666C11.5367 5.28595 10.4174 4.16666 9.03671 4.16666C7.656 4.16666 6.53671 5.28595 6.53671 6.66666C6.53671 8.04737 7.656 9.16666 9.03671 9.16666Z" stroke="currentColor" stroke-width="1.66667" stroke-linecap="round" stroke-linejoin="round"/>
</svg>
