<svg width="46" height="46" viewBox="0 0 46 46" fill="none" xmlns="http://www.w3.org/2000/svg">
<g opacity="0.3">
<path d="M23 6C32.3888 6 40 13.6112 40 23C40 32.3888 32.3888 40 23 40C13.6112 40 6 32.3888 6 23C6 13.6112 13.6112 6 23 6Z" stroke="white" stroke-width="2"/>
</g>
<g opacity="0.1">
<path d="M23 1C35.1503 1 45 10.8497 45 23C45 35.1503 35.1503 45 23 45C10.8497 45 1 35.1503 1 23C1 10.8497 10.8497 1 23 1Z" stroke="white" stroke-width="2"/>
</g>
<path d="M22.9999 18.334V23.0007M22.9999 27.6673H23.0116M34.6666 23.0007C34.6666 29.444 29.4432 34.6673 22.9999 34.6673C16.5566 34.6673 11.3333 29.444 11.3333 23.0007C11.3333 16.5573 16.5566 11.334 22.9999 11.334C29.4432 11.334 34.6666 16.5573 34.6666 23.0007Z" stroke="white" stroke-width="2" stroke-linecap="round" stroke-linejoin="round"/>
</svg>
