<svg width="16" height="16" viewBox="0 0 16 16" fill="none" xmlns="http://www.w3.org/2000/svg">
<g clip-path="url(#clip0_12540_7706)">
<path d="M10.6667 5.33398V3.46732C10.6667 2.72058 10.6667 2.34721 10.5214 2.062C10.3936 1.81111 10.1896 1.60714 9.93869 1.47931C9.65348 1.33398 9.28011 1.33398 8.53337 1.33398H3.46671C2.71997 1.33398 2.3466 1.33398 2.06139 1.47931C1.8105 1.60714 1.60653 1.81111 1.4787 2.062C1.33337 2.34721 1.33337 2.72058 1.33337 3.46732V8.53398C1.33337 9.28072 1.33337 9.65409 1.4787 9.9393C1.60653 10.1902 1.8105 10.3942 2.06139 10.522C2.3466 10.6673 2.71997 10.6673 3.46671 10.6673H5.33337M7.46671 14.6673H12.5334C13.2801 14.6673 13.6535 14.6673 13.9387 14.522C14.1896 14.3942 14.3936 14.1902 14.5214 13.9393C14.6667 13.6541 14.6667 13.2807 14.6667 12.534V7.46732C14.6667 6.72058 14.6667 6.34721 14.5214 6.062C14.3936 5.81111 14.1896 5.60714 13.9387 5.47931C13.6535 5.33398 13.2801 5.33398 12.5334 5.33398H7.46671C6.71997 5.33398 6.3466 5.33398 6.06139 5.47931C5.8105 5.60714 5.60653 5.81111 5.4787 6.062C5.33337 6.34721 5.33337 6.72058 5.33337 7.46732V12.534C5.33337 13.2807 5.33337 13.6541 5.4787 13.9393C5.60653 14.1902 5.8105 14.3942 6.06139 14.522C6.3466 14.6673 6.71997 14.6673 7.46671 14.6673Z" stroke="#A4A7AE" stroke-width="1.5" stroke-linecap="round" stroke-linejoin="round"/>
</g>
<defs>
<clipPath id="clip0_12540_7706">
<rect width="16" height="16" fill="white"/>
</clipPath>
</defs>
</svg>
