<svg width="46" height="46" viewBox="0 0 46 46" fill="none" xmlns="http://www.w3.org/2000/svg">
<g opacity="0.3">
<path d="M23 6C32.3888 6 40 13.6112 40 23C40 32.3888 32.3888 40 23 40C13.6112 40 6 32.3888 6 23C6 13.6112 13.6112 6 23 6Z" stroke="white" stroke-width="2"/>
</g>
<g opacity="0.1">
<path d="M23 1C35.1503 1 45 10.8497 45 23C45 35.1503 35.1503 45 23 45C10.8497 45 1 35.1503 1 23C1 10.8497 10.8497 1 23 1Z" stroke="white" stroke-width="2"/>
</g>
<path d="M26.5 19.4997L19.5 26.4997M19.5 19.4997L26.5 26.4997M34.6667 22.9997C34.6667 29.443 29.4434 34.6663 23 34.6663C16.5567 34.6663 11.3334 29.443 11.3334 22.9997C11.3334 16.5564 16.5567 11.333 23 11.333C29.4434 11.333 34.6667 16.5564 34.6667 22.9997Z" stroke="white" stroke-width="2" stroke-linecap="round" stroke-linejoin="round"/>
</svg>
