<svg width="44" height="44" viewBox="0 0 44 44" fill="none" xmlns="http://www.w3.org/2000/svg">
<path fill-rule="evenodd" clip-rule="evenodd" d="M22.7544 21.1161C23.2426 21.6043 23.2426 22.3957 22.7544 22.8839L17.6629 27.9754C17.2968 28.3415 16.7032 28.3415 16.3371 27.9754C15.971 27.6093 15.971 27.0157 16.3371 26.6496L20.9867 22L16.3371 17.3504C15.971 16.9843 15.971 16.3907 16.3371 16.0246C16.7032 15.6585 17.2968 15.6585 17.6629 16.0246L22.7544 21.1161Z" fill="currentColor"/>
<path fill-rule="evenodd" clip-rule="evenodd" d="M26.0625 16.0625C26.5803 16.0625 27 16.4822 27 17V27C27 27.5178 26.5803 27.9375 26.0625 27.9375C25.5447 27.9375 25.125 27.5178 25.125 27V17C25.125 16.4822 25.5447 16.0625 26.0625 16.0625Z" fill="currentColor"/>
</svg>
