<svg width="20" height="20" viewBox="0 0 20 20" fill="none" xmlns="http://www.w3.org/2000/svg">
<g clip-path="url(#clip0_425_425)">
<path d="M7.5 7.5H7.50834M12.5 12.5H12.5083M13.3333 6.66667L6.66667 13.3333M7.91667 7.5C7.91667 7.73012 7.73012 7.91667 7.5 7.91667C7.26989 7.91667 7.08334 7.73012 7.08334 7.5C7.08334 7.26988 7.26989 7.08333 7.5 7.08333C7.73012 7.08333 7.91667 7.26988 7.91667 7.5ZM12.9167 12.5C12.9167 12.7301 12.7301 12.9167 12.5 12.9167C12.2699 12.9167 12.0833 12.7301 12.0833 12.5C12.0833 12.2699 12.2699 12.0833 12.5 12.0833C12.7301 12.0833 12.9167 12.2699 12.9167 12.5ZM18.3333 10C18.3333 14.6024 14.6024 18.3333 10 18.3333C5.39763 18.3333 1.66667 14.6024 1.66667 10C1.66667 5.39763 5.39763 1.66667 10 1.66667C14.6024 1.66667 18.3333 5.39763 18.3333 10Z" stroke="currentColor" stroke-width="1.66667" stroke-linecap="round" stroke-linejoin="round"/>
</g>
<defs>
<clipPath id="clip0_425_425">
<rect width="20" height="20" fill="white"/>
</clipPath>
</defs>
</svg>
