<svg width="664" height="86" viewBox="0 0 664 86" fill="none" xmlns="http://www.w3.org/2000/svg">
<g clip-path="url(#clip0_7_17)">
<path d="M191.532 16.6847C186.75 16.6847 182.076 18.0696 178.1 20.6657C174.124 23.2613 171.025 26.9512 169.195 31.2682C167.366 35.5745 166.886 40.3342 167.819 44.9188C168.753 49.5013 171.055 53.7108 174.437 57.0148C177.818 60.3188 182.127 62.5683 186.817 63.4794C191.505 64.3906 196.357 63.923 200.785 62.1332C205.203 60.344 208.978 57.3149 211.634 53.4291C214.29 49.5433 215.706 44.9753 215.705 40.3027C215.697 34.0408 213.147 28.0376 208.616 23.6097C204.084 19.1823 197.94 16.692 191.532 16.6847ZM191.532 52.7263C189.018 52.7263 186.561 51.9983 184.471 50.6336C182.392 49.2819 180.763 47.3418 179.79 45.0605C178.829 42.7969 178.577 40.2951 179.067 37.8852C179.563 35.4652 180.774 33.25 182.544 31.5264C184.334 29.7821 186.596 28.6001 189.05 28.1261C191.514 27.6464 194.065 27.8915 196.393 28.8317C198.703 29.7609 200.687 31.3515 202.097 33.4041C203.491 35.435 204.238 37.8396 204.242 40.3027C204.239 43.5961 202.899 46.7539 200.516 49.0835C198.134 51.4125 194.902 52.7224 191.532 52.7263ZM120.354 35.5281L116.131 33.4657C114.3 32.5848 113.154 31.8904 112.692 31.3825C112.253 30.9366 112.003 30.3382 111.996 29.7125C111.996 28.9162 112.36 28.2481 113.093 27.7111C113.826 27.1741 114.838 26.9069 116.131 26.9069C118.499 26.9069 121.131 28.3097 124.026 31.1153L131.16 24.1439C129.407 21.8191 127.13 19.9401 124.515 18.6593C121.881 17.367 118.982 16.7028 116.048 16.7189C111.684 16.7189 108.104 17.9772 105.305 20.4933C102.506 23.0088 101.106 26.0401 101.104 29.5877C101.104 35.0891 104.819 39.6688 112.249 43.3267L116.131 45.2234C119.474 46.8737 121.146 48.5649 121.146 50.2981C121.146 51.2333 120.682 52.0582 119.755 52.7733C118.827 53.4879 117.603 53.8452 116.083 53.8452C114.675 53.8452 113.063 53.3686 111.25 52.4155C109.449 51.4746 107.823 50.2315 106.444 48.7402L99.4157 56.2302C103.41 61.3447 108.756 63.9022 115.456 63.9022C120.494 63.9022 124.512 62.5683 127.509 59.9016C130.507 57.2349 132.005 53.9068 132.004 49.9185C132.004 46.923 131.174 44.3106 129.513 42.0807C127.853 39.8508 124.8 37.6668 120.354 35.5281ZM48.5974 17.6199H37.1314L37.1689 21.6485C33.4561 17.9733 28.8809 16.6847 24.1752 16.6847C17.7632 16.6847 11.6144 19.1739 7.08064 23.6041C2.54688 28.0342 0 34.0436 0 40.3089C0 46.5741 2.54688 52.5829 7.08064 57.0137C11.6144 61.4438 17.7638 63.933 24.1752 63.933C29.7399 63.933 34.5027 61.5233 36.9561 58.4585C36.9561 58.6438 36.9393 60.8721 36.9326 61.1129C36.8866 62.6361 36.661 65.0765 35.1921 67.5697C34.3259 68.9973 33.182 70.2366 31.8282 71.2141C30.4636 72.2001 28.9177 72.9069 27.2793 73.294C25.6347 73.6839 23.9297 73.748 22.2606 73.4827C20.5957 73.2189 18.999 72.63 17.5616 71.7495L11.8591 81.4493C15.6217 83.6742 19.9127 84.8477 24.2838 84.8473C30.6286 84.8473 38.5398 82.3968 44.1504 74.7987C48.8169 68.4847 48.5974 62.5196 48.5974 56.7449V17.6199ZM24.1758 52.7263C21.6614 52.7263 19.2046 51.9983 17.1147 50.6336C15.0356 49.2819 13.406 47.3418 12.4337 45.0605C11.4723 42.7969 11.22 40.2951 11.7102 37.8852C12.2063 35.4652 13.4176 33.25 15.1872 31.5264C16.9775 29.7822 19.2392 28.6001 21.6933 28.1261C24.1576 27.6465 26.7081 27.8916 29.036 28.8317C31.3461 29.7611 33.3306 31.3517 34.7407 33.4041C36.1344 35.4349 36.8819 37.8396 36.885 40.3027C36.8827 43.5961 35.5426 46.7539 33.1598 49.0835C30.777 51.4131 27.5458 52.7235 24.1752 52.7263H24.1758ZM94.309 17.6188H82.7848V40.0809C82.8078 43.2629 82.8033 48.7744 80.4026 51.1365C79.2512 52.2677 77.9974 53.2813 75.3368 53.2813C72.6768 53.2813 71.4129 52.2598 70.2632 51.1365C67.8625 48.7744 67.8686 43.2629 67.8916 40.0809V17.6193H56.3752V40.0009C56.3438 44.6097 56.2856 53.1922 62.0676 58.8796C65.4612 62.2161 69.5027 63.9089 75.3452 63.9089C81.1882 63.9089 85.2314 62.2161 88.625 58.8796C94.4076 53.1922 94.3488 44.6097 94.3174 40.0009L94.309 17.6188ZM153.917 52.5919C152.603 52.4183 151.309 51.5016 150.573 49.8272C150.07 48.6792 149.888 47.1728 149.888 45.3164V27.2547H163.432V17.5857H149.888V5.02719H138.395V44.4053C138.395 48.267 138.713 52.9475 141.32 57.2701C143.546 60.946 147.466 63.9168 153.9 63.9168C161.701 63.9168 167.314 58.4036 167.314 58.4036L160.418 50.1173C160.418 50.1173 157.39 53.0511 153.917 52.5919Z" fill="#F15E49"/>
<path d="M247.147 62.7979C255.803 62.7979 262.339 58.2932 265.872 51.8454L259.689 48.6657C256.951 52.9055 253.683 55.9967 247.236 55.9967C239.817 55.9967 233.369 50.344 232.839 42.7482H267.374C267.374 42.7482 267.462 41.6887 267.462 40.0098C267.462 27.8219 258.718 17.9295 246.618 17.9295C234.429 17.9295 225.244 27.5565 225.244 40.3631C225.244 53.4352 234.429 62.7979 247.147 62.7979ZM233.016 36.4779C233.723 30.6483 239.464 24.5538 246.441 24.5538C253.507 24.5538 258.983 29.6767 259.778 36.4773L233.016 36.4779ZM285.698 39.3036C285.698 30.5598 290.026 24.9071 296.65 24.9071C303.01 24.9071 306.366 29.7651 306.366 37.4489V61.8263H313.962V39.3036C313.962 30.5598 318.289 24.9071 324.914 24.9071C331.361 24.9071 334.63 29.6767 334.63 37.2719V61.8263H342.225V35.9475C342.225 24.9071 336.307 17.9295 326.415 17.9295C318.289 17.9295 313.874 22.6991 311.754 26.32C309.192 21.1092 304.6 17.9295 298.24 17.9295C292.323 17.9295 287.995 20.6679 285.61 25.0835V18.9011H278.103V61.8263H285.698V39.3036ZM363.238 61.8263V55.3784C366.417 60.0595 372.159 62.7979 378.429 62.7979C390.618 62.7979 399.98 52.9939 399.98 40.3637C399.98 27.645 390.618 17.9301 378.429 17.9301C372.159 17.9301 366.329 21.0213 363.238 25.7018V3.05176e-05H355.73V61.8263H363.238ZM392.296 40.3637C392.296 49.0191 385.937 55.8197 377.546 55.8197C369.155 55.8197 362.796 49.0191 362.796 40.3637C362.796 31.7078 369.155 24.9071 377.546 24.9071C385.937 24.9071 392.296 31.7083 392.296 40.3637ZM430.262 62.7979C438.918 62.7979 445.454 58.2932 448.987 51.8454L442.804 48.6657C440.066 52.9055 436.798 55.9967 430.351 55.9967C422.931 55.9967 416.484 50.344 415.954 42.7482H450.489C450.489 42.7482 450.576 41.6887 450.576 40.0098C450.576 27.8219 441.833 17.9295 429.733 17.9295C417.544 17.9295 408.358 27.5565 408.358 40.3631C408.358 53.4352 417.544 62.7979 430.262 62.7979ZM416.131 36.4779C416.837 30.6483 422.578 24.5538 429.556 24.5538C436.622 24.5538 442.097 29.6767 442.893 36.4773L416.131 36.4779ZM495.3 3.05176e-05V25.349C492.12 20.6674 486.379 17.9295 480.108 17.9295C467.92 17.9295 458.558 27.7335 458.558 40.3631C458.558 53.0819 467.92 62.7979 480.108 62.7979C486.379 62.7979 492.209 59.7061 495.3 55.0251V61.8263H502.807V3.05176e-05H495.3ZM495.742 40.3637C495.742 49.0191 489.382 55.8197 480.992 55.8197C472.601 55.8197 466.241 49.0191 466.241 40.3637C466.241 31.7078 472.601 24.9071 480.992 24.9071C489.382 24.9071 495.742 31.7083 495.742 40.3637ZM550.588 3.05176e-05V25.349C547.408 20.6674 541.667 17.9295 535.396 17.9295C523.208 17.9295 513.845 27.7335 513.845 40.3631C513.845 53.0819 523.208 62.7979 535.396 62.7979C541.667 62.7979 547.497 59.7061 550.588 55.0251V61.8263H558.095V3.05176e-05H550.588ZM551.029 40.3637C551.029 49.0191 544.67 55.8197 536.279 55.8197C527.889 55.8197 521.53 49.0191 521.53 40.3637C521.53 31.7078 527.889 24.9071 536.279 24.9071C544.67 24.9071 551.029 31.7083 551.029 40.3637ZM591.035 62.7979C599.693 62.7979 606.228 58.2932 609.761 51.8454L603.579 48.6657C600.841 52.9055 597.576 55.9967 591.125 55.9967C583.705 55.9967 577.259 50.344 576.727 42.7482H611.262C611.262 42.7482 611.352 41.6887 611.352 40.0098C611.352 27.8219 602.61 17.9295 590.509 17.9295C578.317 17.9295 569.133 27.5565 569.133 40.3631C569.133 53.4352 578.318 62.7979 591.035 62.7979ZM576.906 36.4779C577.612 30.6483 583.352 24.5538 590.33 24.5538C597.397 24.5538 602.873 29.6767 603.669 36.4773L576.906 36.4779ZM656.074 3.05176e-05V25.349C652.893 20.6674 647.153 17.9295 640.886 17.9295C628.695 17.9295 619.332 27.7335 619.332 40.3631C619.332 53.0819 628.695 62.7979 640.886 62.7979C647.153 62.7979 652.982 59.7061 656.074 55.0251V61.8263H663.583V3.05176e-05H656.074ZM656.516 40.3637C656.516 49.0191 650.16 55.8197 641.765 55.8197C633.377 55.8197 627.015 49.0191 627.015 40.3637C627.015 31.7078 633.377 24.9071 641.765 24.9071C650.16 24.9071 656.516 31.7083 656.516 40.3637Z" fill="black"/>
</g>
<defs>
<clipPath id="clip0_7_17">
<rect width="663.6" height="85.12" fill="white"/>
</clipPath>
</defs>
</svg>
